<svg viewBox="0 0 1024 1024" height="1024" width="1024" xmlns:xlink="http://www.w3.org/1999/xlink" xmlns="http://www.w3.org/2000/svg">
  <defs>
    <clipPath id="clip-path">
      <path stroke-width="2" stroke="#52527e" fill="#fff" transform="translate(6374 1999)" d="M-6169.6-1783.931s-70.1,144.259-73.146,283.438,31.493,284.454,31.493,284.454h123.94s-29.461-89.4-59.938-181.847-40.211-236.72-.444-368.505C-6151.943-1778.136-6169.6-1783.931-6169.6-1783.931Z" id="路径_30"></path>
    </clipPath>
    <clipPath id="clip-path-2">
      <path stroke-width="2" stroke="#52527e" fill="none" transform="translate(6374 1999)" d="M-6151.778-1806.585s-4.268-82.166,7.114-106.353,21.359-30.989,29.878-27.033-3.557,52.643-8.537,66.515-24.9,66.871-24.9,66.871Z" id="路径_33"></path>
    </clipPath>
    <clipPath id="clip-path-3">
      <path stroke-width="2" stroke="#52527e" fill="none" transform="translate(6374 1999)" d="M-6154.269-1806.585s-.712-56.556-15.651-88.213-31.3-41.617-50.509-36.281-8.892,36.992-2.49,47.663,60.468,85.367,60.468,85.367Z" id="路径_36"></path>
    </clipPath>
    <clipPath id="clip-path-4">
      <path stroke-width="2" stroke="#52527e" fill="none" transform="translate(6231.489 1932.443)" d="M-6231.489-1806.585s.712-56.556,15.651-88.213,31.3-41.617,50.509-36.281,8.892,36.992,2.49,47.663-60.468,85.367-60.468,85.367Z" id="路径_39"></path>
    </clipPath>
    <clipPath id="clip-path-5">
      <path stroke-width="2" stroke="#52527e" fill="none" transform="translate(6374 1999)" d="M-6157.824-1803.027s-11.382-41.972-55.489-54.422-83.589,15.3-104.931,30.234-58.69,53-44.462,77.542,57.979,6.047,76.119-10.315,61.536-49.8,124.494-37.7C-6159.6-1798.048-6157.824-1803.027-6157.824-1803.027Z" id="路径_42"></path>
    </clipPath>
    <clipPath id="clip-path-6">
      <path stroke-width="2" stroke="#52527e" fill="none" transform="translate(6365.857 1860.576)" d="M-6365.857-1803.027s11.382-41.972,55.489-54.422,83.589,15.3,104.931,30.234,58.69,53,44.462,77.542-57.979,6.047-76.119-10.315-61.536-49.8-124.494-37.7C-6364.079-1798.048-6365.857-1803.027-6365.857-1803.027Z" id="路径_45"></path>
    </clipPath>
    <clipPath id="clip-path-7">
      <path stroke-width="2" stroke="#52527e" fill="none" transform="translate(6374 1999)" d="M-6159.574-1796.816s-29.824-12.312-65.394,12.313-58.279,59.921-67.309,75.517-15.323,47.335,2.736,50.345,51.713-26.267,68.13-56.638,42.957-67.309,61.836-70.592A25.81,25.81,0,0,0-6159.574-1796.816Z" id="路径_48"></path>
    </clipPath>
    <clipPath id="clip-path-8">
      <path stroke-width="2" stroke="#52527e" fill="none" transform="translate(6301.11 1799.894)" d="M-6300.5-1796.816s29.824-12.312,65.394,12.313,58.279,59.921,67.309,75.517,15.323,47.335-2.736,50.345-51.713-26.267-68.13-56.638-42.957-67.309-61.836-70.592A25.81,25.81,0,0,1-6300.5-1796.816Z" id="路径_51"></path>
    </clipPath>
    <clipPath id="clip-path-9">
      <path stroke-width="2" stroke="#52527e" fill="#a5c74e" transform="translate(0 0)" d="M197.613,148H.387C.13,144,0,139.932,0,135.905A179.473,179.473,0,0,1,7.78,83a157.366,157.366,0,0,1,9.128-23.085A136.878,136.878,0,0,1,29,39.806a114.956,114.956,0,0,1,14.652-16.6A95.005,95.005,0,0,1,60.464,10.68,80.392,80.392,0,0,1,79.047,2.761a73.468,73.468,0,0,1,39.9,0,80.394,80.394,0,0,1,18.583,7.919,95.008,95.008,0,0,1,16.817,12.53A114.956,114.956,0,0,1,169,39.806a136.877,136.877,0,0,1,12.089,20.114A157.365,157.365,0,0,1,190.22,83a179.47,179.47,0,0,1,7.78,52.9c0,4.032-.13,8.1-.387,12.094Z" id="减去_7"></path>
    </clipPath>
    <clipPath id="clip-path-10">
      <path stroke-width="2" stroke="#52527e" fill="#a5c74e" transform="translate(0.483 0.268)" d="M245.628,227H-1.63c-.246-5.429-.37-10.945-.37-16.4A356.2,356.2,0,0,1,.519,168.16a325.176,325.176,0,0,1,7.225-39.533A280.581,280.581,0,0,1,19.177,92.853,226.91,226.91,0,0,1,34.318,61.684,172.041,172.041,0,0,1,52.67,35.968,124.741,124.741,0,0,1,73.733,16.55,91.624,91.624,0,0,1,97.009,4.279a75.119,75.119,0,0,1,49.981,0A91.623,91.623,0,0,1,170.266,16.55a124.739,124.739,0,0,1,21.063,19.418A172.038,172.038,0,0,1,209.68,61.684a226.911,226.911,0,0,1,15.141,31.169,280.59,280.59,0,0,1,11.433,35.774,325.168,325.168,0,0,1,7.225,39.533A356.2,356.2,0,0,1,246,210.6c0,5.459-.125,10.975-.37,16.4Z" id="减去_8"></path>
    </clipPath>
    <clipPath id="clip-path-11">
      <path stroke-width="2" stroke="#52527e" fill="none" transform="translate(1785 -1341)" d="M-1270.8,1759.316s-1.669,32.271,11.128,47.85,84.015,142.437,92.361,154.121,46.181,70.662,53.414,89.023,82.346,23.925,82.346,23.925l61.76-35.053-155.79-210.317-57.865-141.88Z" id="路径_367"></path>
    </clipPath>
    <clipPath id="clip-path-12">
      <path stroke-width="2" stroke="#52527e" fill="none" transform="translate(1785 -1341)" d="M-1117.068,2041.867s24.034-21.729,37.861-13.828,29.3,33.91,50.042,25.35,39.836-40.166,27.655-56.956c-8.56-17.778,60.907,83.294,60.907,83.294L-1073.939,2225.9h-103.377s-.329-72.759,68.15-59.59c4.609-8.231,20.741-29.63,11.194-71.113S-1117.068,2041.867-1117.068,2041.867Z" id="路径_371"></path>
    </clipPath>
    <clipPath id="clip-path-13">
      <path stroke-width="2" stroke="#52527e" fill="none" transform="translate(1785 -1341)" d="M-1223.21,1719.257s-23.54,69.335-56.5,120.267-62.487,92.875-85.171,117.7-41.936,43.719-41.936,43.719v43.138l10.1,82.458,91.988-15.862s29.63-42.984,42.8-66.6,54.323-98.347,57.615-108.553c12.511,6.585,24.414,12.485,32.011,4.634s36.8-68.834,48.979-103.732,31.606-110.62,31.606-110.62Z" id="路径_381"></path>
    </clipPath>
    <clipPath id="clip-path-14">
      <path stroke-width="2" stroke="#52527e" fill="none" transform="translate(1785 -1341)" d="M-1596.423,2035.119c-.329.519,222.559,165.632,223.414,166.49,26.109-25.682,71.8-90.756,78.893-106.2-11.65,5.318-50.144,25.325-73.7,12.409s-13.422-43.306-10.89-54.449,9.37-33.682,1.52-49.384-25.072-8.611-25.072-8.611-26.085,27.351-42.293,30.643-35.962,8.611-54.2-6.584S-1550.66,1984.987-1596.423,2035.119Z" id="路径_385"></path>
    </clipPath>
    <clipPath id="clip-path-15">
      <path stroke-width="2" stroke="#52527e" fill="none" transform="translate(1785 -1341)" d="M-1324.815,1626.814s3.163-108.711,1.879-120.267-8.559-35.952-23.967-46.652c-3.125-7.981-17.346-24.345-24.359-28.046-7.013-1.753-21.039,0-21.039,0s-16.364-7.6-31.949,1.364c-1.169-.584-15.585.974-17.143,2.922-1.364-1.169-13.052-.779-16.169,5.649s-2.143,14.793,0,18.111,8.961,2.539,8.961,2.539l15.243,61.232s4.708,28.676,11.556,52.215,34.313,98.439,50.54,119.411,47.767,24.264,67.521,7.473,25.68-20.412,25.68-20.412Z" id="路径_345"></path>
    </clipPath>
    <clipPath id="clip-path-16">
      <path stroke-width="2" stroke="#52527e" fill="none" transform="translate(1785 -1341)" d="M-1250.308,1526.354s-3.8,27.351,10.637,32.163,31.657-14.435,35.709-23.806,7.091-17.474,6.331-24.819c9.117,1.013,46.5,17.416,70.657,31.443s65.261,48.508,65.261,48.508l-21.778,2.307-14.815,143.544s-34.9,24.692-71.443,21.071-53.664-36.215-53.664-36.215-12.181,31.935-48.4,39.507c0-2.963-2.3-63.87-2.3-63.87l-9.548,14.486s7.243-38.19-41.154-80.661c2.53-3.983,23.855-41.216,34.576-56.662S-1250.308,1526.354-1250.308,1526.354Z" id="路径_334"></path>
    </clipPath>
    <clipPath id="clip-path-17">
      <path stroke-width="2" stroke="#52527e" fill="#d9805c" transform="translate(-1118.386 1763.772)" d="M1856.42-1180.724l-.153.144,94.664,114.387-73.418-2.3L1785-1184.058l.981.045L1953.235-1341l71.047,2.568-1.962,1.843,2.358-2.206,75.722,116.546-149.14,156.383Z" id="联合_2"></path>
    </clipPath>
    <clipPath id="clip-郊游">
      <rect height="1024" width="1024"></rect>
    </clipPath>
  </defs>
  <g clip-path="url(#clip-郊游)" id="郊游">
    <rect fill="#fff" height="1024" width="1024"></rect>
    <rect fill="#d9f9fa" transform="translate(160 139)" height="747" width="730" id="矩形_1"></rect>
    <g id="组_75">
      <g stroke-width="2" stroke="#52527e" fill="#ffda65" transform="translate(785 179)" id="椭圆_52">
        <circle stroke="none" r="30" cy="30" cx="30"></circle>
        <circle fill="none" r="29" cy="30" cx="30"></circle>
      </g>
      <path fill="#fff" transform="translate(1785 -1341)" d="M-895,1668.63h-120.422s14.9-41.913,31.359-23.147c3.292-3.951,28.643-34.569,39.178-27.655s0,29.63,0,29.63,34.569-46.75,50.372-48.4C-894.513,1608.938-895,1668.63-895,1668.63Z" id="路径_315"></path>
      <path stroke-width="2" stroke="#52527e" fill="#fff" transform="translate(1785 -1341)" d="M-1625,1746.8c-.1,4.986.167,114.339.167,114.339h366.823s7.79-51.188-48.963-21.143c7.233-12.241,10.572-40.06-4.451-46.737s-42.842,1.669-57.865,17.248c.556-1.669,33.384-52.858,0-77.9s-92.362,28.933-92.362,28.933,33.854-81.662,1.755-86.8-110.423,93.731-112.135,98.011C-1574.6,1769.337-1600.706,1719.689-1625,1746.8Z" id="路径_316"></path>
      <path stroke-width="2" stroke="#52527e" fill="none" transform="translate(1785 -1341)" d="M-1625.023,1861.142h729.85" id="路径_317"></path>
      <path stroke-width="2" stroke="#52527e" fill="none" transform="translate(1785 -1341)" d="M-894.513,1599.061c-15.8,1.646-50.372,48.4-50.372,48.4s10.535-22.717,0-29.63-35.886,23.7-39.178,27.655c-16.461-18.766-31.359,23.147-31.359,23.147h120.909" id="路径_318"></path>
      <path stroke-width="2" stroke="#52527e" fill="none" transform="translate(6643.081 2185)" d="M-6101.566-1491.19c9.3-.547,12.586-14.228,24.9-13.407s12.039,13.681,21.615,13.407,14.228-12.86,24.078-12.313,14.228,10.944,22.983,10.944" id="路径_257"></path>
      <path stroke-width="2" stroke="#52527e" fill="none" transform="translate(6419.081 2047)" d="M-6101.566-1491.19c9.3-.547,12.586-14.228,24.9-13.407s12.039,13.681,21.615,13.407,14.228-12.86,24.078-12.313,14.228,10.944,22.983,10.944" id="路径_319"></path>
      <path stroke-width="2" stroke="#52527e" fill="none" transform="translate(6402.838 2093.268)" d="M-6148.081-1492.558c1.368,0,13.955-12.039,24.078-12.039s13.133,13.954,22.436,13.407,12.586-14.228,24.9-13.407,12.039,13.681,21.615,13.407,14.228-12.86,24.078-12.313,14.228,10.944,22.983,10.944" id="路径_259"></path>
      <path stroke-width="2" stroke="#52527e" fill="none" transform="translate(6628.918 2260.726)" d="M-6101.566-1491.19c9.3-.547,12.586-14.228,24.9-13.407s12.039,13.681,21.615,13.407" id="路径_258"></path>
      <path stroke-width="2" stroke="#52527e" fill="none" transform="translate(1785 -1341)" d="M-1113.22,2087.342c-6.848-9.416-47.08-39.375-54.784-15.408S-1120.924,2091.622-1113.22,2087.342Z" id="路径_320"></path>
      <path stroke-width="2" stroke="#52527e" fill="none" transform="translate(880.843 -1609.725) rotate(-23)" d="M-1113.22,2087.342c-6.848-9.416-47.08-39.375-54.784-15.408S-1120.924,2091.622-1113.22,2087.342Z" id="路径_321"></path>
      <path stroke-width="2" stroke="#52527e" fill="none" transform="translate(2628.689 59.546) rotate(47)" d="M-1113.22,2087.342c-6.848-9.416-47.08-39.375-54.784-15.408S-1120.924,2091.622-1113.22,2087.342Z" id="路径_322"></path>
      <path stroke-width="2" stroke="#52527e" fill="none" transform="translate(2208.588 -784.983) rotate(24)" d="M-1113.22,2087.342c-6.848-9.416-47.08-39.375-54.784-15.408S-1120.924,2091.622-1113.22,2087.342Z" id="路径_323"></path>
    </g>
    <g transform="translate(17 32)" id="组_4">
      <path stroke-width="2" stroke="#52527e" fill="#f58153" transform="translate(6374 1999)" d="M-6169.6-1783.931s-70.1,144.259-73.146,283.438,31.493,284.454,31.493,284.454h123.94s-29.461-89.4-59.938-181.847-40.211-236.72-.444-368.505C-6151.943-1778.136-6169.6-1783.931-6169.6-1783.931Z" id="路径_20"></path>
      <g clip-path="url(#clip-path)" id="蒙版组_1">
        <path stroke-width="2" stroke="#52527e" fill="none" transform="translate(6374 1999)" d="M-6191.619-1734.023h34.858" id="路径_21"></path>
        <path stroke-width="2" stroke="#52527e" fill="none" transform="translate(6361.64 2023)" d="M-6191.618-1734.023h48.943" id="路径_22"></path>
        <path stroke-width="2" stroke="#52527e" fill="none" transform="translate(6354.64 2049)" d="M-6191.618-1734.023h48.943" id="路径_23"></path>
        <path stroke-width="2" stroke="#52527e" fill="none" transform="translate(6342.64 2081)" d="M-6191.618-1734.023h59.732" id="路径_24"></path>
        <path stroke-width="2" stroke="#52527e" fill="none" transform="translate(6335.64 2115)" d="M-6191.618-1734.023h59.732" id="路径_25"></path>
        <path stroke-width="2" stroke="#52527e" fill="none" transform="translate(6326.64 2157)" d="M-6191.618-1734.023h70.524" id="路径_26"></path>
        <path stroke-width="2" stroke="#52527e" fill="none" transform="translate(6321.64 2214)" d="M-6191.618-1734.023h77.789" id="路径_27"></path>
        <path stroke-width="2" stroke="#52527e" fill="none" transform="translate(6321.64 2283)" d="M-6191.618-1734.023h87.47" id="路径_28"></path>
        <path stroke-width="2" stroke="#52527e" fill="none" transform="translate(6321.64 2362)" d="M-6191.619-1734.023h115.674" id="路径_29"></path>
      </g>
      <path stroke-width="2" stroke="#52527e" fill="#c4de7b" transform="translate(6374 1999)" d="M-6151.778-1806.585s-4.268-82.166,7.114-106.353,21.359-30.989,29.878-27.033-3.557,52.643-8.537,66.515-24.9,66.871-24.9,66.871Z" id="路径_31"></path>
      <g clip-path="url(#clip-path-2)" id="蒙版组_13">
        <path stroke-width="2" stroke="#52527e" fill="none" transform="translate(6374 1999)" d="M-6118.534-1942.379s-21.068,27.908-31.192,137.627" id="路径_32"></path>
      </g>
      <path stroke-width="2" stroke="#52527e" fill="#a5c74e" transform="translate(6374 1999)" d="M-6154.269-1806.585s-.712-56.556-15.651-88.213-31.3-41.617-50.509-36.281-8.892,36.992-2.49,47.663,60.468,85.367,60.468,85.367Z" id="路径_34"></path>
      <g clip-path="url(#clip-path-3)" id="蒙版组_2">
        <path stroke-width="2" stroke="#52527e" fill="none" transform="translate(6374 1999)" d="M-6219.006-1933.924s38.771,28.811,63.314,134.809" id="路径_35"></path>
      </g>
      <path stroke-width="2" stroke="#52527e" fill="#a5c74e" transform="translate(5184.505 4374.612) rotate(24)" d="M-6231.489-1806.585s.712-56.556,15.651-88.213,31.3-41.617,50.509-36.281,8.892,36.992,2.49,47.663-60.468,85.367-60.468,85.367Z" id="路径_37"></path>
      <g clip-path="url(#clip-path-4)" transform="translate(277.752 74.663) rotate(24)" id="蒙版组_3">
        <path stroke-width="2" stroke="#52527e" fill="none" transform="translate(6220.428 1932.443)" d="M-6155.691-1933.924s-38.771,28.811-63.314,134.809" id="路径_38"></path>
      </g>
      <path stroke-width="2" stroke="#52527e" fill="#c4de7b" transform="translate(6374 1999)" d="M-6157.824-1803.027s-11.382-41.972-55.489-54.422-83.589,15.3-104.931,30.234-58.69,53-44.462,77.542,57.979,6.047,76.119-10.315,61.536-49.8,124.494-37.7C-6159.6-1798.048-6157.824-1803.027-6157.824-1803.027Z" id="路径_40"></path>
      <g clip-path="url(#clip-path-5)" id="蒙版组_4">
        <path stroke-width="2" stroke="#52527e" fill="none" transform="translate(6374 1999)" d="M-6355.212-1737.783s-1.094-36.325,24.625-59.582,67.036-48.156,104.794-42.957,65.394,38.306,65.394,38.306" id="路径_41"></path>
      </g>
      <path stroke-width="2" stroke="#52527e" fill="#c4de7b" transform="translate(5307.844 4430.504) rotate(24)" d="M-6365.857-1803.027s11.382-41.972,55.489-54.422,83.589,15.3,104.931,30.234,58.69,53,44.462,77.542-57.979,6.047-76.119-10.315-61.536-49.8-124.494-37.7C-6364.079-1798.048-6365.857-1803.027-6365.857-1803.027Z" id="路径_43"></path>
      <g clip-path="url(#clip-path-6)" transform="translate(249.108 141.556) rotate(24)" id="蒙版组_5">
        <path stroke-width="2" stroke="#52527e" fill="none" transform="translate(6357.793 1860.576)" d="M-6160.405-1737.783s1.094-36.325-24.625-59.582-67.036-48.156-104.794-42.957-65.394,38.306-65.394,38.306" id="路径_44"></path>
      </g>
      <path stroke-width="2" stroke="#52527e" fill="#a5c74e" transform="translate(6374 1999)" d="M-6159.574-1796.816s-29.824-12.312-65.394,12.313-58.279,59.921-67.309,75.517-15.323,47.335,2.736,50.345,51.713-26.267,68.13-56.638,42.957-67.309,61.836-70.592A25.81,25.81,0,0,0-6159.574-1796.816Z" id="路径_46"></path>
      <g clip-path="url(#clip-path-7)" id="蒙版组_6">
        <path stroke-width="2" stroke="#52527e" fill="none" transform="translate(6374 1999)" d="M-6301.109-1662.2s26.618-51.166,57.536-84.273,75.791-49.25,84.546-47.061" id="路径_47"></path>
      </g>
      <path stroke-width="2" stroke="#52527e" fill="#a5c74e" transform="translate(5176.732 4490.649) rotate(25)" d="M-6300.5-1796.816s29.824-12.312,65.394,12.313,58.279,59.921,67.309,75.517,15.323,47.335-2.736,50.345-51.713-26.267-68.13-56.638-42.957-67.309-61.836-70.592A25.81,25.81,0,0,1-6300.5-1796.816Z" id="路径_49"></path>
      <g clip-path="url(#clip-path-8)" transform="translate(226.655 196.427) rotate(25)" id="蒙版组_7">
        <path stroke-width="2" stroke="#52527e" fill="none" transform="translate(6301.17 1799.894)" d="M-6159.027-1662.2s-26.618-51.166-57.536-84.273-75.791-49.25-84.546-47.061" id="路径_50"></path>
      </g>
      <g stroke-width="2" stroke="#52527e" fill="#f8a62d" transform="translate(204 187)" id="椭圆_2">
        <circle stroke="none" r="19" cy="19" cx="19"></circle>
        <circle fill="none" r="18" cy="19" cx="19"></circle>
      </g>
      <g stroke-width="2" stroke="#52527e" fill="#f5ca42" transform="translate(209 222)" id="椭圆_3">
        <circle stroke="none" r="19" cy="19" cx="19"></circle>
        <circle fill="none" r="18" cy="19" cx="19"></circle>
      </g>
      <g stroke-width="2" stroke="#52527e" fill="#f5ca42" transform="translate(183 214)" id="椭圆_4">
        <circle stroke="none" r="19" cy="19" cx="19"></circle>
        <circle fill="none" r="18" cy="19" cx="19"></circle>
      </g>
    </g>
    <g id="组_76">
      <path stroke-width="2" stroke="#52527e" fill="#98ac25" transform="translate(1785 -1341)" d="M-1255.744,2204.614s15.408-35.952,63.344-18.832c40.232,6.42,53.5-22.684,56.068-26.964s.856-32.528,41.516-30.388,137.815,2.14,137.815,2.14l3,95.871h-311.582Z" id="路径_324"></path>
      <path stroke-width="2" stroke="#52527e" fill="#c4de7b" transform="translate(1785 -1341)" d="M-1275,2226.442s10.006-28.207,29.96-22.256,24.234,12.827,42.853-7.471,22.793-47.358,44.066-46.852,37.481,18.74,37.481,18.74l108.43-16.634,47.08,33.384-5.992,41.088Z" id="路径_325"></path>
      <g transform="translate(13 1)" id="组_67">
        <g id="组_61">
          <path stroke-width="2" stroke="#52527e" fill="#98ac24" transform="translate(1785 234)" d="M-981.833,539.708s-7.7-32.528,17.548-32.1,45.368,22.256,50.076,51.36-5.564,56.5-5.564,56.5Z" id="路径_260"></path>
          <path stroke-width="2" stroke="#52527e" fill="none" transform="translate(1785 234)" d="M-959.149,520.876s38.948,55.212,38.948,95.872" id="路径_261"></path>
        </g>
        <g id="组_66">
          <path stroke-width="2" stroke="#52527e" fill="none" transform="translate(1785 234)" d="M-926.909,586.536s11.65-115.23,19.247-127.893" id="路径_268"></path>
          <path stroke-width="2" stroke="#52527e" fill="#c8e27b" transform="translate(1785 234)" d="M-915.8,456.052S-939.377,473-927.883,480.987s21.819-21.234,21.819-21.234Z" id="路径_269"></path>
          <path stroke-width="2" stroke="#52527e" fill="#c8e27b" transform="matrix(0.848, 0.53, -0.53, 0.848, 1912.9, 796.675)" d="M-921.3,456.052s23.572,16.949,12.078,24.936-21.819-21.234-21.819-21.234Z" id="路径_270"></path>
          <g stroke-width="2" stroke="#52527e" fill="#c8e27b" transform="translate(858 676)" id="椭圆_45">
            <circle stroke="none" r="11" cy="11" cx="11"></circle>
            <circle fill="none" r="10" cy="11" cx="11"></circle>
          </g>
          <g stroke-width="2" stroke="#52527e" fill="#c8e27b" transform="translate(879 685)" id="椭圆_46">
            <circle stroke="none" r="11" cy="11" cx="11"></circle>
            <circle fill="none" r="10" cy="11" cx="11"></circle>
          </g>
          <g stroke-width="2" stroke="#52527e" fill="#f6cb42" transform="translate(870 658)" id="椭圆_47">
            <circle stroke="none" r="17.5" cy="17.5" cx="17.5"></circle>
            <circle fill="none" r="16.5" cy="17.5" cx="17.5"></circle>
          </g>
        </g>
        <g id="组_62">
          <path stroke-width="2" stroke="#52527e" fill="#c4de7b" transform="translate(1785 234)" d="M-1040.37,519.856c-5.268,4.938-24.363,20.412-13.169,48.068s43.458,31.606,57.615,38.191,46.751,35.228,48.4,41.154c.988.988,21.4.329,21.4.329s5.6-33.582-3.622-60.578-36.545-51.689-60.908-63.542S-1035.1,514.917-1040.37,519.856Z" id="路径_262"></path>
          <path stroke-width="2" stroke="#52527e" fill="none" transform="translate(1785 234)" d="M-1017.982,544.548s67.163,13.169,85.271,103.049" id="路径_263"></path>
        </g>
        <g transform="translate(841.001 749.369)" id="组_63">
          <path stroke-width="2" stroke="#52527e" fill="#a5c74e" transform="translate(1056.999 -515.369)" d="M-942,503.723c8.889,6.255,28.314,25.68,17.12,53.335s-42.142,26.009-60.635,49.055-46.751,35.228-48.4,41.154c-.988.988-21.4.329-21.4.329s5.324-31.606,14.543-58.6,27.326-70.785,51.689-82.637S-950.893,497.468-942,503.723Z" id="路径_262-2"></path>
          <path stroke-width="2" stroke="#52527e" fill="none" transform="translate(1026.25 -515.369)" d="M-931.338,529.4s-59.92,31.277-77.7,117.206" id="路径_263-2"></path>
        </g>
        <g id="组_64">
          <path stroke-width="2" stroke="#52527e" fill="#98ac24" transform="translate(1785 234)" d="M-956.035,638.2c-8.1-.506-18.234,17.221-21.273,25.579s-6.585,59.515-34.949,53.437-27.6-35.456-27.6-46.852,9.37-65.086,52.93-66.859,53.69,43.053,53.69,43.053l-35.456-.507" id="路径_264"></path>
          <path stroke-width="2" stroke="#52527e" fill="none" transform="translate(1785 234)" d="M-1014.283,669.6s5.825-57.742,63.82-50.651" id="路径_265"></path>
        </g>
        <g id="组_65">
          <path stroke-width="2" stroke="#52527e" fill="#c4de7b" transform="translate(1785 234)" d="M-915.027,647.812h18.117s31.17,12.207,37.014,20.779,21.04,11.3,24.546-10.909-6.624-47.144-33.118-53.963-53.573,4.352-60.781,44.093C-929.637,648.4-915.027,647.812-915.027,647.812Z" id="路径_266"></path>
          <path stroke-width="2" stroke="#52527e" fill="none" transform="translate(1785 234)" d="M-919.956,646.472s15.285-48.253,56.046-23.078" id="路径_267"></path>
        </g>
      </g>
      <path stroke-width="2" stroke="#52527e" fill="#98ac24" transform="translate(1785 -1341)" d="M-1569.377,2059.279s108.136-44.195,137.285,23.508,68.364,58.228,68.364,58.228,83.459-16.692,89.023,85.685c-1.669-.556-294.672,0-294.672,0Z" id="路径_326"></path>
      <g transform="translate(245.998 736.497)" id="组_7">
        <g fill="#c4de7b" transform="translate(-5.998 0.504)" id="减去_3">
          <path stroke="none" d="M 196.6079559326172 148 L 1.392026782035828 148 C 1.131800055503845 143.9852600097656 1 139.9061126708984 1 135.860107421875 C 1 117.6189270019531 3.602575063705444 99.92565155029297 8.735474586486816 83.27169799804688 C 11.20114994049072 75.27167510986328 14.25244998931885 67.55667877197266 17.80462455749512 60.34104919433594 C 21.32082557678223 53.1984748840332 25.35810089111328 46.48307418823242 29.80430030822754 40.38137435913086 C 34.24627685546875 34.28549957275391 39.13262557983398 28.75250053405762 44.32759857177734 23.93607521057129 C 49.56600189208984 19.07939910888672 55.1640510559082 14.90922546386719 60.96620178222656 11.54142475128174 C 66.86810302734375 8.115699768066406 73.04247283935547 5.485175132751465 79.31782531738281 3.722949981689453 C 85.75199890136719 1.916125059127808 92.37384796142578 1 98.99945068359375 1 C 105.6250534057617 1 112.2469253540039 1.916125059127808 118.6811218261719 3.722949981689453 C 124.9566268920898 5.485225200653076 131.1310424804688 8.115750312805176 137.0328674316406 11.54142475128174 C 142.8350677490234 14.90925025939941 148.4331817626953 19.07942581176758 153.6716766357422 23.93607521057129 C 158.8665924072266 28.75234985351562 163.7530212402344 34.28535079956055 168.1951446533203 40.38137435913086 C 172.6415252685547 46.48322677612305 176.6788482666016 53.19862365722656 180.1950225830078 60.34104919433594 C 183.7472686767578 67.55664825439453 186.7986297607422 75.27165222167969 189.2643432617188 83.271728515625 C 194.3973541259766 99.92577362060547 197 117.6190719604492 197 135.860107421875 C 197 139.9065856933594 196.8681793212891 143.9857330322266 196.6079559326172 148 Z"></path>
          <path fill="#52527e" stroke="none" d="M 195.6682891845703 147 C 195.8885498046875 143.3096923828125 196 139.5709838867188 196 135.860107421875 C 196 117.7189178466797 193.4122924804688 100.1247406005859 188.3087158203125 83.56626129150391 C 185.8585052490234 75.61650085449219 182.8268127441406 67.95102691650391 179.2978668212891 60.78271102905273 C 175.8070220947266 53.69178771972656 171.7996368408203 47.02592086791992 167.3869934082031 40.97029113769531 C 162.9827880859375 34.92639541625977 158.1395568847656 29.44197273254395 152.9917907714844 24.66939544677734 C 147.8075256347656 19.86300086975098 142.269287109375 15.73707866668701 136.5308990478516 12.40628910064697 C 130.7017822265625 9.022842407226562 124.6052932739258 6.425262928009033 118.4107666015625 4.685710430145264 C 112.0645294189453 2.903605222702026 105.5336303710938 2 98.99945068359375 2 C 92.46531677246094 2 85.93441772460938 2.903605222702026 79.58821105957031 4.685710430145264 C 73.39376068115234 6.425236701965332 67.29731750488281 9.022815704345703 61.46821212768555 12.40628910064697 C 55.72994613647461 15.73702621459961 50.19176483154297 19.8629207611084 45.00749969482422 24.66936874389648 C 39.85973739624023 29.44202613830566 35.01655197143555 34.92644882202148 30.61249923706055 40.97029113769531 C 26.20002555847168 47.02571105957031 22.19268417358398 53.69157791137695 18.70181655883789 60.78271102905273 C 15.1729211807251 67.95108032226562 12.14126300811768 75.6165771484375 9.691104888916016 83.56626129150391 C 4.587657928466797 100.1246566772461 2 117.7188720703125 2 135.860107421875 C 2 139.5708312988281 2.111452579498291 143.3095397949219 2.331710338592529 147 L 195.6682891845703 147 M 197.5428619384766 149 L 197.5417633056641 149 L 197.5428619384766 149 Z M 197.5428619384766 149 L 0.457131564617157 149 C 0.1534210592508316 144.65771484375 0 140.2371063232422 0 135.860107421875 C 0 117.5190277099609 2.617500066757202 99.72663116455078 7.779815673828125 82.97718048095703 C 10.26102638244629 74.92681884765625 13.33199977874756 67.16231536865234 16.90744781494141 59.89936828613281 C 20.448974609375 52.70536804199219 24.51618385314941 45.94044876098633 28.9961051940918 39.79244613647461 C 33.47602462768555 33.64450073242188 38.40555191040039 28.06292152404785 43.64773559570312 23.20273590087891 C 48.94021224975586 18.29594802856445 54.59807968139648 14.08150005340576 60.46421051025391 10.67655277252197 C 66.43878936767578 7.20863151550293 72.69110870361328 4.545184135437012 79.04747009277344 2.760184288024902 C 85.56960296630859 0.9286842346191406 92.28241729736328 0 98.99945068359375 0 C 105.7164764404297 0 112.4293441772461 0.9286842346191406 118.9514770507812 2.760184288024902 C 125.3078918457031 4.545210361480713 131.5602416992188 7.20863151550293 137.5348968505859 10.67655277252197 C 143.4010314941406 14.08150005340576 149.0589752197266 18.29592132568359 154.3515472412109 23.20273590087891 C 159.5936889648438 28.06281661987305 164.5232696533203 33.64436721801758 169.0033721923828 39.79244613647461 C 173.4834136962891 45.94057846069336 177.5507049560547 52.70550155639648 181.0922088623047 59.89936828613281 C 184.6677703857422 67.16234588623047 187.73876953125 74.92681884765625 190.2200012207031 82.97718048095703 C 195.3824462890625 99.72670745849609 198 117.5191040039062 198 135.860107421875 C 198 140.2418365478516 197.8462371826172 144.6623992919922 197.5429229736328 148.9990234375 L 197.5428466796875 149 Z"></path>
        </g>
        <g clip-path="url(#clip-path-9)" transform="translate(-5.998 0.503)" id="蒙版组_30">
          <path stroke-width="2" stroke="#52527e" fill="none" transform="translate(6256.563 1330.561)" d="M-6153.221-1331v151.586" id="路径_59"></path>
          <path stroke-width="2" stroke="#52527e" fill="none" transform="translate(6260.362 1325.897)" d="M-6225.818-1296.121l68.8,120.971" id="路径_60"></path>
          <path stroke-width="2" stroke="#52527e" fill="none" transform="translate(6261.889 1314.395)" d="M-6255-1210.113l92.507,46.866" id="路径_61"></path>
          <path stroke-width="2" stroke="#52527e" fill="none" transform="translate(6256.514 1325.464)" d="M-6095.33-1292.884l-56.966,116.965" id="路径_62"></path>
          <path stroke-width="2" stroke="#52527e" fill="none" transform="translate(6256.563 1314.395)" d="M-6069.617-1210.113l-83.6,46.866" id="路径_63"></path>
        </g>
      </g>
      <g transform="translate(35.517 658.732)" id="组_7-2">
        <g fill="#a5c74e" transform="translate(0.483 0.268)" id="减去_3-2">
          <path stroke="none" d="M 244.6714782714844 226.0007019042969 L -0.6733642220497131 226.0007019042969 C -0.8906163573265076 220.9026794433594 -1.000696063041687 215.7275238037109 -1.000696063041687 210.6036071777344 C -1.000696063041687 196.3543243408203 -0.1555085480213165 182.1143493652344 1.511335253715515 168.2792205810547 C 3.13555383682251 154.7983551025391 5.558928966522217 141.5387268066406 8.714179039001465 128.8687591552734 C 11.81111621856689 116.432975769043 15.64377307891846 104.4398803710938 20.10571098327637 93.22266387939453 C 24.52274131774902 82.11825561523438 29.59439849853516 71.67794799804688 35.17971038818359 62.19169616699219 C 40.75977325439453 52.71444320678711 46.89786529541016 44.11250686645508 53.42355346679688 36.62479019165039 C 60.00196075439453 29.0765380859375 67.03130340576172 22.59575653076172 74.31633758544922 17.36241340637207 C 81.72145843505859 12.04285049438477 89.46683502197266 7.958663463592529 97.33730316162109 5.223319530487061 C 105.4006805419922 2.420944690704346 113.6982421875 1.000007152557373 121.9994888305664 1.000007152557373 C 130.3006439208984 1.000007152557373 138.5980834960938 2.420944690704346 146.6613616943359 5.223319530487061 C 154.5317687988281 7.958663463592529 162.2770843505859 12.04285049438477 169.6821441650391 17.36241340637207 C 176.9671173095703 22.59575653076172 183.9963989257812 29.0765380859375 190.5747375488281 36.624755859375 C 197.1004028320312 44.11247634887695 203.2384643554688 52.71441268920898 208.8184967041016 62.19169616699219 C 214.4037780761719 71.67787933349609 219.4754028320312 82.11822509765625 223.8924560546875 93.22266387939453 C 228.3543090820312 104.4397583007812 232.1869659423828 116.4328231811523 235.283935546875 128.8687591552734 C 238.4391479492188 141.5384826660156 240.8625183105469 154.798095703125 242.4867706298828 168.2792205810547 C 244.1536102294922 182.1143493652344 244.9988098144531 196.3543243408203 244.9988098144531 210.6036071777344 C 244.9988098144531 215.7270050048828 244.8887023925781 220.9021759033203 244.6714782714844 226.0007019042969 Z"></path>
          <path fill="#52527e" stroke="none" d="M 243.7118988037109 225.0007171630859 C 243.9023742675781 220.2267303466797 243.9988250732422 215.3924713134766 243.9988250732422 210.6036224365234 C 243.9988250732422 196.3941497802734 243.1560516357422 182.1944122314453 241.4939575195312 168.3988494873047 C 239.8746948242188 154.9589233398438 237.4588470458984 141.7403869628906 234.3135833740234 129.1104125976562 C 231.2273864746094 116.7178192138672 227.4085845947266 104.7677841186523 222.9632873535156 93.59228515625 C 218.565185546875 82.53545379638672 213.5162506103516 72.14144897460938 207.9567565917969 62.69905090332031 C 202.4078521728516 53.27468490600586 196.3060607910156 44.72308349609375 189.8208465576172 37.28178405761719 C 183.2931213378906 29.79161834716797 176.3211822509766 23.36301803588867 169.0987243652344 18.17458343505859 C 161.7718811035156 12.91121768951416 154.1124267578125 8.871583938598633 146.3330841064453 6.167884349822998 C 138.3755798339844 3.402284383773804 130.1885833740234 2.000017642974854 121.9994888305664 2.000017642974854 C 113.8103179931641 2.000017642974854 105.6231842041016 3.402284383773804 97.66558837890625 6.167884349822998 C 89.88622283935547 8.871550559997559 82.2266845703125 12.91118431091309 74.89975738525391 18.17458343505859 C 67.67728424072266 23.36298370361328 60.70528793334961 29.79158401489258 54.17745208740234 37.28178405761719 C 47.69218826293945 44.72311782836914 41.59035491943359 53.27471923828125 36.04145431518555 62.69905090332031 C 30.48195457458496 72.14141845703125 25.43302154541016 82.53538513183594 21.03488731384277 93.59231567382812 C 16.58945465087891 104.7680206298828 12.77065372467041 116.718017578125 9.684554100036621 129.1104125976562 C 6.539287090301514 141.7402496337891 4.123454093933105 154.9587860107422 2.504153966903687 168.3988494873047 C 0.8420872688293457 182.1945190429688 -0.0006793782813474536 196.3942565917969 -0.0006793782813474536 210.6036224365234 C -0.0006793782813474536 215.3932037353516 0.09575068205595016 220.2273254394531 0.2862250804901123 225.0007171630859 L 243.7118988037109 225.0007171630859 M 245.6284942626953 227.0007171630859 L -1.630346059799194 227.0007171630859 C -1.876446008682251 221.5719146728516 -2.000679492950439 216.0554504394531 -2.000679492950439 210.6036224365234 C -2.000679492950439 196.314453125 -1.153079390525818 182.0342102050781 0.5185205936431885 168.1596221923828 C 2.147687196731567 154.6377563476562 4.578620433807373 141.3370819091797 7.743820667266846 128.6271209716797 C 10.85155391693115 116.1478805541992 14.69808769226074 104.1117477416992 19.17652130126953 92.85308074951172 C 23.61238670349121 81.70131683349609 28.70672035217285 71.21461486816406 34.31798553466797 61.68431854248047 C 39.92922210693359 52.15415191650391 46.10362243652344 43.50181579589844 52.6696891784668 35.96775054931641 C 59.29872131347656 28.3614501953125 66.38538360595703 21.82848358154297 73.73288726806641 16.55025100708008 C 81.21628570556641 11.17448425292969 89.0474853515625 7.045717716217041 97.00901794433594 4.278717517852783 C 105.1782531738281 1.439584255218506 113.5862503051758 1.761881503625773e-05 121.9994888305664 1.761881503625773e-05 C 130.4126586914062 1.761881503625773e-05 138.820556640625 1.439584255218506 146.9896545410156 4.278717517852783 C 154.9511260986328 7.045717716217041 162.7822875976562 11.17448425292969 170.2655944824219 16.55025100708008 C 177.6130218505859 21.82848358154297 184.6996612548828 28.3614501953125 191.32861328125 35.96775054931641 C 197.8945922851562 43.50171661376953 204.0689544677734 52.15401840209961 209.6802215576172 61.68431854248047 C 215.2914276123047 71.21455383300781 220.3857574462891 81.70121765136719 224.8216552734375 92.85308074951172 C 229.3000183105469 104.111686706543 233.1465148925781 116.147819519043 236.2543182373047 128.6271209716797 C 239.4194488525391 141.3368530273438 241.8504180908203 154.6375122070312 243.4795837402344 168.1596221923828 C 245.1512145996094 182.0342102050781 245.9988250732422 196.314453125 245.9988250732422 210.6036224365234 C 245.9988250732422 216.062255859375 245.8742218017578 221.5787200927734 245.6285247802734 226.9997100830078 L 245.6284942626953 227.0007171630859 Z"></path>
        </g>
        <g clip-path="url(#clip-path-10)" id="蒙版组_35">
          <path stroke-width="2" stroke="#52527e" fill="none" transform="translate(6280.231 1331.008)" d="M-6153.221-1331v227.256" id="路径_59-2"></path>
          <path stroke-width="2" stroke="#52527e" fill="none" transform="translate(6262.25 1341.426)" d="M-6225.818-1296.121l90.578,181.358" id="路径_60-2"></path>
          <path stroke-width="2" stroke="#52527e" fill="none" transform="translate(6255.022 1367.116)" d="M-6255-1210.113l121.794,70.261" id="路径_61-2"></path>
          <path stroke-width="2" stroke="#52527e" fill="none" transform="translate(6280.459 1342.393)" d="M-6077.295-1292.884l-75,175.352" id="路径_62-2"></path>
          <path stroke-width="2" stroke="#52527e" fill="none" transform="translate(6280.23 1367.116)" d="M-6043.149-1210.113l-110.071,70.261" id="路径_63-2"></path>
        </g>
      </g>
    </g>
    <g id="组_81">
      <path stroke-width="2" stroke="#52527e" fill="#98bdf2" transform="translate(1785 -1341)" d="M-1270.8,1759.316s-1.669,32.271,11.128,47.85,84.015,142.437,92.361,154.121,46.181,70.662,53.414,89.023,82.346,23.925,82.346,23.925l61.76-35.053-155.79-210.317-57.865-141.88Z" id="路径_363"></path>
      <g clip-path="url(#clip-path-11)" id="蒙版组_39">
        <path stroke-width="2" stroke="#52527e" fill="#f7bebe" transform="translate(1785 -1341)" d="M-1103.8,1856.641c0,1.712-42.371,65.911-75.327,87.739,29.532,55.639,81.319,137.814,81.319,137.814l104.431-11.556,40.232-49.647Z" id="路径_364"></path>
        <path stroke-width="2" stroke="#52527e" fill="#fff" transform="translate(1785 -1341)" d="M-1122.63,2040.251l107-76.611,50.5,72.759-10.272,30.816-139.1,16.692Z" id="路径_365"></path>
        <path stroke-width="2" stroke="#52527e" fill="#fff" transform="translate(1785 -1341)" d="M-1125.2,2029.979l100.151-83.459,8.132,23.112-101.863,77.467Z" id="路径_366"></path>
      </g>
      <path stroke-width="2" stroke="#52527e" fill="#fa94af" transform="translate(1785 -1341)" d="M-1117.068,2041.867s24.034-21.729,37.861-13.828,29.3,33.91,50.042,25.35,39.836-40.166,27.655-56.956c-8.56-17.778,60.907,83.294,60.907,83.294L-1073.939,2225.9h-103.377s-.329-72.759,68.15-59.59c4.609-8.231,20.741-29.63,11.194-71.113S-1117.068,2041.867-1117.068,2041.867Z" id="路径_368"></path>
      <g clip-path="url(#clip-path-12)" id="蒙版组_40">
        <path stroke-width="2" stroke="#52527e" fill="#faf2de" transform="translate(1785 -1341)" d="M-1114.763,2161.705s27.984,14.815,39.836,34.24c6.585-8.231,123.131-134.654,123.131-134.654l13.828,17.449-133.337,148.152h-109.3l4.28-36.544,28.643-26.667Z" id="路径_369"></path>
        <path stroke-width="2" stroke="#52527e" fill="none" transform="translate(1785 -1341)" d="M-1101.265,2145.573s8.56,18.108,25.021,3.622,29.96-49.713,23.375-77.7-17.449-39.178-17.449-39.178" id="路径_370"></path>
      </g>
      <path stroke-width="2" stroke="#52527e" fill="none" transform="translate(1785 -1341)" d="M-1103.008,2122.443s14.806,26.689,42.468,21.624" id="路径_372"></path>
      <path stroke-width="2" stroke="#52527e" fill="none" transform="translate(1785 -1341)" d="M-1103.008,2109s28.052,23.377,54.936,8.377" id="路径_373"></path>
      <path stroke-width="2" stroke="#52527e" fill="none" transform="translate(1785 -1341)" d="M-1105.541,2092.442s36.234,21.04,65.845,0" id="路径_374"></path>
      <path stroke-width="2" stroke="#52527e" fill="none" transform="translate(1785 -1341)" d="M-1108.463,2077.442s41.494,19.091,66.625-7.6" id="路径_375"></path>
      <circle fill="#171948" transform="translate(739 724)" r="5" cy="5" cx="5" id="椭圆_60"></circle>
      <circle fill="#171948" transform="translate(741 745)" r="5" cy="5" cx="5" id="椭圆_61"></circle>
      <circle fill="#171948" transform="translate(733 771)" r="5" cy="5" cx="5" id="椭圆_62"></circle>
      <circle fill="#171948" transform="translate(720 798)" r="5" cy="5" cx="5" id="椭圆_63"></circle>
      <g stroke-width="2" stroke="#52527e" fill="#fff" transform="translate(772 717)" id="椭圆_64">
        <circle stroke="none" r="15" cy="15" cx="15"></circle>
        <circle fill="none" r="14" cy="15" cx="15"></circle>
      </g>
    </g>
    <g id="组_82">
      <path stroke-width="2" stroke="#52527e" fill="#b3c9f7" transform="translate(1785 -1341)" d="M-1223.21,1719.257s-23.54,69.335-56.5,120.267-62.487,92.875-85.171,117.7-41.936,43.719-41.936,43.719v43.138l10.1,82.458,91.988-15.862s29.63-42.984,42.8-66.6,54.323-98.347,57.615-108.553c12.511,6.585,24.414,12.485,32.011,4.634s36.8-68.834,48.979-103.732,31.606-110.62,31.606-110.62Z" id="路径_376"></path>
      <g clip-path="url(#clip-path-13)" id="蒙版组_41">
        <path stroke-width="2" stroke="#52527e" fill="#171948" transform="translate(1785 -1341)" d="M-1185.607,1896.075s17.922,23.572,12.857,46.365c-3.9,12.663-7.4,8.182-8.182,8.182s-47.923-20.065-47.923-20.065l12.857-24.351Z" id="路径_377"></path>
        <path stroke-width="2" stroke="#52527e" fill="#f7bebe" transform="translate(1785 -1341)" d="M-1267.524,1814.041s62.553,32.923,82.307,82.636c-4.28,10.865-19.092,39.335-19.092,39.335l-6.429,26.1-62.12,118.8L-1392.7,1956.367Z" id="路径_378"></path>
        <path stroke-width="2" stroke="#52527e" fill="#fff" transform="translate(1785 -1341)" d="M-1377.289,1967.495l-41.944,43.228,31.244,110.423,91.591,4.708,23.112-55.639Z" id="路径_379"></path>
        <path stroke-width="2" stroke="#52527e" fill="#fff" transform="translate(1785 -1341)" d="M-1387.561,1978.195c1.284,3,109.139,102.719,109.139,102.719s10.7-23.968,10.272-25.252-105.715-95.443-105.715-95.443Z" id="路径_380"></path>
      </g>
      <path stroke-width="2" stroke="#52527e" fill="#fa94af" transform="translate(1785 -1341)" d="M-1596.423,2035.119c-.329.519,222.559,165.632,223.414,166.49,26.109-25.682,71.8-90.756,78.893-106.2-11.65,5.318-50.144,25.325-73.7,12.409s-13.422-43.306-10.89-54.449,9.37-33.682,1.52-49.384-25.072-8.611-25.072-8.611-26.085,27.351-42.293,30.643-35.962,8.611-54.2-6.584S-1550.66,1984.987-1596.423,2035.119Z" id="路径_382"></path>
      <g clip-path="url(#clip-path-14)" id="蒙版组_42">
        <path stroke-width="2" stroke="#52527e" fill="#faf2de" transform="translate(1785 -1341)" d="M-1502.795,2013.857s14.182,34.7,0,62.3c1.266,1.773,147.367,107.936,147.367,107.936l-15.474,23.375-231.447-174.161,38.19-28.643,41.812-5.6Z" id="路径_383"></path>
        <path stroke-width="2" stroke="#52527e" fill="none" transform="translate(1785 -1341)" d="M-1486.2,2025.038s-6.818,9.546,2.922,19.676,26.494,18.312,53.183,21.039,59.806-17.922,57.079-34.676" id="路径_384"></path>
      </g>
      <path stroke-width="2" stroke="#52527e" fill="none" transform="translate(1785 -1341)" d="M-1475.245,2022.784s7.608,21.21-2.651,33.774" id="路径_386"></path>
      <path stroke-width="2" stroke="#52527e" fill="none" transform="translate(1785 -1341)" d="M-1459.337,2023.36c0,.346,10.6,23.861-3.573,44.725" id="路径_387"></path>
      <path stroke-width="2" stroke="#52527e" fill="none" transform="translate(1785 -1341)" d="M-1443.233,2019.118s16.484,18.881,4.646,52.3" id="路径_388"></path>
      <path stroke-width="2" stroke="#52527e" fill="none" transform="translate(1785 -1341)" d="M-1430.646,2010.726s27.123,24.726,17.383,63.538" id="路径_389"></path>
      <circle fill="#171948" transform="translate(301 713)" r="5" cy="5" cx="5" id="椭圆_65"></circle>
      <circle fill="#171948" transform="translate(316 723)" r="5" cy="5" cx="5" id="椭圆_66"></circle>
      <circle fill="#171948" transform="translate(340 727)" r="5" cy="5" cx="5" id="椭圆_67"></circle>
      <circle fill="#171948" transform="translate(366 730)" r="5" cy="5" cx="5" id="椭圆_68"></circle>
    </g>
    <g id="组_77">
      <path stroke-width="2" stroke="#52527e" fill="#171948" transform="translate(1785 -1341)" d="M-1258.472,1480s-19.286-2.562-15.2-26.524c6.039-15.974,71.5,0,71.5,0s11.883,16.559,2.143,24.936-20.65,2.727-20.65,2.727l-7.792,13.247-.974,20.455h-10.715l-3.312-31.17Z" id="路径_327"></path>
      <path stroke-width="2" stroke="#52527e" fill="#f7bebe" transform="translate(1785 -1341)" d="M-1240.443,1536.923v-21.21s8.876-4.034,9.568-7.723a45,45,0,0,0,0-11.988c-8.761,4.15-20.634,2.421-26.513-12.219s2.536-27.435,2.536-27.435h13.487s7.608,3.458,6.57,23.054c5.072-1.5,10.375-11.873,10.375-11.873s5.072,13.372,7.032,14.524c1.268,4.957,5.574,25.936,5.574,25.936s11.4,1.143,14.689,3.169,2.532,20.513,2.532,20.513l-8.1,26.085-32.1,12.409-22.593-13.929,5.764-27.845,10.605-9.452" id="路径_328"></path>
      <g stroke-width="2" stroke="#52527e" fill="#84dceb" transform="translate(489 87)" id="椭圆_54">
        <ellipse stroke="none" ry="15" rx="55.5" cy="15" cx="55.5"></ellipse>
        <ellipse fill="none" ry="14" rx="54.5" cy="15" cx="55.5"></ellipse>
      </g>
      <path stroke-width="2" stroke="#52527e" fill="#84dceb" transform="translate(1785 -1341)" d="M-1261.918,1440.543s10.64-23.377,11.539-25.325,3-2.548,5.994-2.4,14.985-.15,17.683,0,6.594,2.7,6.294,9.141,0,18.582,0,18.582" id="路径_329"></path>
    </g>
    <g id="组_80">
      <path stroke-width="2" stroke="#52527e" fill="#171948" transform="translate(1785 -1341)" d="M-1305.972,1701.885s17.233,11.988,21.879,9.141,1.648-25.475,1.648-25.475h-8.092Z" id="路径_340"></path>
      <path stroke-width="2" stroke="#52527e" fill="#f7bebe" transform="translate(1785 -1341)" d="M-1324.815,1626.814s3.163-108.711,1.879-120.267-8.559-35.952-23.967-46.652c-3.125-7.981-17.346-24.345-24.359-28.046-7.013-1.753-21.039,0-21.039,0s-16.364-7.6-31.949,1.364c-1.169-.584-15.585.974-17.143,2.922-1.364-1.169-13.052-.779-16.169,5.649s-2.143,14.793,0,18.111,8.961,2.539,8.961,2.539l15.243,61.232s4.708,28.676,11.556,52.215,34.313,98.439,50.54,119.411,47.767,24.264,67.521,7.473,25.68-20.412,25.68-20.412Z" id="路径_339"></path>
      <g clip-path="url(#clip-path-15)" id="蒙版组_37">
        <path stroke-width="2" stroke="#52527e" fill="none" transform="translate(1785 -1341)" d="M-1446.07,1461.771s-15.7-8.1,7.851-28.364" id="路径_341"></path>
        <path stroke-width="2" stroke="#52527e" fill="none" transform="translate(1785 -1341)" d="M-1433.154,1449.869s-4.559-9.117,10.89-18.487" id="路径_342"></path>
      </g>
      <path stroke-width="2" stroke="#52527e" fill="#ec9676" transform="translate(1785 -1341)" d="M-1075.917,1555.273s19.1-1.317,22.387,0,32.594,23.046,23.7,78.027C-1031.142,1636.592-1075.917,1555.273-1075.917,1555.273Z" id="路径_337"></path>
      <path stroke-width="2" stroke="#52527e" fill="#dd815b" transform="translate(1785 -1341)" d="M-1213.864,1507.864s68.809-13.169,120.5,31.606,62.224,78.356,64.529,92.842,0,32.264,0,32.264Z" id="路径_336"></path>
      <path stroke-width="2" stroke="#52527e" fill="#171948" transform="translate(1785 -1341)" d="M-1065.8,1613.408c.779-2.143,11.3-10.325,8.572-19.091s-28.832-4.091-28.832-4.091l-4.675,6.818Z" id="路径_362"></path>
      <path stroke-width="2" stroke="#52527e" fill="#f8b863" transform="translate(1785 -1341)" d="M-1250.308,1526.354s-3.8,27.351,10.637,32.163,31.657-14.435,35.709-23.806,7.091-17.474,6.331-24.819c9.117,1.013,46.5,17.416,70.657,31.443s65.261,48.508,65.261,48.508l-21.778,2.307-14.815,143.544s-34.9,24.692-71.443,21.071-53.664-36.215-53.664-36.215-12.181,31.935-48.4,39.507c0-2.963-2.3-63.87-2.3-63.87l-9.548,14.486s7.243-38.19-41.154-80.661c2.53-3.983,23.855-41.216,34.576-56.662S-1250.308,1526.354-1250.308,1526.354Z" id="路径_330"></path>
      <g clip-path="url(#clip-path-16)" id="蒙版组_36">
        <path stroke-width="2" stroke="#52527e" fill="none" transform="translate(1785 -1341)" d="M-1253.375,1529.405s-13.037,19.181-12.738,27.723,4.2,7.942,8.242,4.2,9.441-7.193,13.037-6.144" id="路径_331"></path>
        <path stroke-width="2" stroke="#52527e" fill="none" transform="translate(1785 -1341)" d="M-1216.235,1548.68s12.8-.576,16.83,8.184,11.3-5.3,12.334-16.714-.231-26.052-2.767-30.547" id="路径_332"></path>
        <path stroke-width="2" stroke="#52527e" fill="none" transform="translate(1785 -1341)" d="M-1231.567,1559.6l8.357,160.488" id="路径_333"></path>
      </g>
      <path stroke-width="2" stroke="#52527e" fill="#dd815b" transform="translate(1785 -1341)" d="M-1253.346,1528.632c-1.013,0-17.728-.506-22.793,23.3a217.419,217.419,0,0,0-4.052,68.885,232.923,232.923,0,0,0,7.6,42.04c.506,1.773,2.532-33.429,4.812-52.423S-1265.756,1542.814-1253.346,1528.632Z" id="路径_335"></path>
      <path stroke-width="2" stroke="#52527e" fill="#dd815b" transform="translate(1785 -1341)" d="M-1176.661,1512.474s-21.071,102.39,36.544,136.63c1.317-8.56-40.166-61.566-11.523-123.79" id="路径_338"></path>
      <g id="组_78">
        <g stroke-width="2" stroke="#52527e" fill="#b2c9f7" transform="translate(285 122)" id="椭圆_55">
          <circle stroke="none" r="27.5" cy="27.5" cx="27.5"></circle>
          <circle fill="none" r="26.5" cy="27.5" cx="27.5"></circle>
        </g>
        <g stroke-width="2" stroke="#52527e" fill="#92bcf4" transform="translate(299 128)" id="椭圆_56">
          <circle stroke="none" r="23" cy="23" cx="23"></circle>
          <circle fill="none" r="22" cy="23" cx="23"></circle>
        </g>
        <g stroke-width="2" stroke="#52527e" fill="#b3caf8" transform="translate(317 118)" id="矩形_20">
          <rect stroke="none" height="65" width="102"></rect>
          <rect fill="none" height="63" width="100" y="1" x="1"></rect>
        </g>
        <g stroke-width="2" stroke="#52527e" fill="none" transform="translate(349 107)" id="矩形_21">
          <rect stroke="none" height="12" width="32"></rect>
          <rect fill="none" height="10" width="30" y="1" x="1"></rect>
        </g>
        <g stroke-width="2" stroke="#52527e" fill="#92bdf5" transform="translate(338 118)" id="矩形_22">
          <rect stroke="none" height="65" width="81"></rect>
          <rect fill="none" height="63" width="79" y="1" x="1"></rect>
        </g>
        <g stroke-width="2" stroke="#52527e" fill="#fff" transform="translate(343 131)" id="矩形_23">
          <rect stroke="none" rx="4" height="41" width="53"></rect>
          <rect fill="none" rx="3" height="39" width="51" y="1" x="1"></rect>
        </g>
        <g stroke-width="2" stroke="#52527e" fill="none" transform="translate(320 143)" id="矩形_24">
          <rect stroke="none" rx="6.5" height="33" width="13"></rect>
          <rect fill="none" rx="5.5" height="31" width="11" y="1" x="1"></rect>
        </g>
        <g stroke-width="2" stroke="#52527e" fill="none" transform="translate(399 132)" id="椭圆_57">
          <circle stroke="none" r="7.5" cy="7.5" cx="7.5"></circle>
          <circle fill="none" r="6.5" cy="7.5" cx="7.5"></circle>
        </g>
        <g stroke-width="2" stroke="#52527e" fill="none" transform="translate(399 154)" id="椭圆_58">
          <circle stroke="none" r="7.5" cy="7.5" cx="7.5"></circle>
          <circle fill="none" r="6.5" cy="7.5" cx="7.5"></circle>
        </g>
      </g>
      <path stroke-width="2" stroke="#52527e" fill="#f7bebe" transform="translate(1785 -1341)" d="M-1350.028,1504.317s-15.2-6.429-15.974-18.312a128.576,128.576,0,0,1,0-19.481s5.649-14.805,19.676-6.039" id="路径_344"></path>
      <path stroke-width="2" stroke="#52527e" fill="#f7bebe" transform="translate(1785 -1341)" d="M-1393.081,1432.238s-27.663,5.649-24.156,22.793,30.78,10.325,35.65,7.6,13.247-7.6,13.247-7.6" id="路径_343"></path>
      <path stroke-width="2" stroke="#52527e" fill="#f7bebe" transform="translate(1785 -1341)" d="M-1144.4,1637.251c-.184.347,43.458,97.451,52.018,109.962s13.777,28.591,12.764,39.735-3.546,26.591-8.357,33.429-1.266,26.085,16.461,21.78,98.642-38.317,98.642-38.317,16.132-3.622,13.169-24.034-17.12-42.141-28.643-62.224a635.719,635.719,0,0,0-41.128-60.806c-24.75-32.282-53.36-64.3-53.36-64.3S-1118.805,1602.082-1144.4,1637.251Z" id="路径_346"></path>
      <g id="组_79">
        <g clip-path="url(#clip-path-17)" id="蒙版组_38">
          <path stroke-width="2" stroke="#52527e" fill="#e99577" transform="translate(1785 -1341)" d="M-1117.5,1920.846l70.225,3.489,168.169-158-71.047-2.568Z" id="路径_348"></path>
          <path stroke-width="2" stroke="#52527e" fill="#171948" transform="translate(1785 -1341)" d="M-952.456,2038.578l-94.818-114.571-71.113-3.292,92.513,115.559Z" id="路径_349"></path>
          <path stroke-width="2" stroke="#52527e" fill="#d9805c" transform="translate(1785 -1341)" d="M-802.986,1882.523l-149.14,156.383-95.147-115.23,168.565-157.7Z" id="路径_350"></path>
          <path stroke-width="2" stroke="#52527e" fill="#84dceb" transform="translate(1785 -1341)" d="M-945.541,1917.421l-3.951,52.347,46.75,4.28,7.572-50.7Z" id="路径_356"></path>
          <path stroke-width="2" stroke="#52527e" fill="#fa94af" transform="translate(1785 -1341)" d="M-966.662,1869.683l-13.422,10.458V1892.3l13.422,8.864,11.9-8.864v-12.156Z" id="路径_357"></path>
          <g stroke-width="2" stroke="#52527e" fill="#f8b863" transform="translate(852 475)" id="椭圆_59">
            <circle stroke="none" r="31" cy="31" cx="31"></circle>
            <circle fill="none" r="30" cy="31" cx="31"></circle>
          </g>
          <path stroke-width="2" stroke="#52527e" fill="#fcaf96" transform="translate(1785 -1341)" d="M-1078.879,1882.327l67.492,15.011,87.9,115.23,13.169-14.815L-1001.84,1878.9l-66.175-9.877Z" id="路径_351"></path>
          <path stroke-width="2" stroke="#52527e" fill="#fcaf96" transform="translate(1785 -1341)" d="M-1004.144,1821.287l75.393,2.634s77.368,110.62,78.685,110.62,14.486-13.828,14.486-13.828l-85.6-115.888h-79.344Z" id="路径_352"></path>
        </g>
        <path stroke-width="2" stroke="#52527e" fill="#c56c4e" transform="translate(1785 -1341)" d="M-1070.847,1875.052c-.79-.1,38.948,7.276,38.948,7.276s-18.008-39.31-5.168-67.295c8.56-9.877,8.231-24.363,8.231-24.363s-9.251-19.449-19.754,1.646C-1066.7,1797.583-1078.879,1814.374-1070.847,1875.052Z" id="路径_347"></path>
        <path stroke-width="2" stroke="#52527e" fill="#c56c4e" transform="translate(1785 -1341)" d="M-977.3,1810.751l44.066,1.013s-13.929-29.377-29.124-33.682S-977.3,1810.751-977.3,1810.751Z" id="路径_358"></path>
      </g>
      <path stroke-width="2" stroke="#52527e" fill="#f7bebe" transform="translate(1785 -1341)" d="M-962.69,1767.547a103.1,103.1,0,0,1,2.991,12.259c2.963,20.412-13.169,24.034-13.169,24.034l-15.107-27.641" id="路径_393"></path>
      <path stroke-width="2" stroke="#52527e" fill="#f7bebe" transform="translate(2945 -1358.211)" d="M-2162.761,1792.255l14.182,42.8s14.688-2.279,16.715-20.766-8.611-35.708-8.611-35.708" id="路径_392"></path>
      <path stroke-width="2" stroke="#52527e" fill="#f7bebe" transform="translate(2945 -1358.211)" d="M-2159.469,1787.95c7.344,9.624,13.929,35.962,9.877,52.676s-24.565,17.474-24.565,17.474l-13.422-64.579" id="路径_391"></path>
      <path stroke-width="2" stroke="#52527e" fill="#f7bebe" transform="translate(2945 -1358.211)" d="M-2214.424,1798.08s18.74,11.4,16.208,25.578.253,12.409-4.305,15.955-15.2,4.812-9.624,20.513,27.1,14.688,34.442,5.318,11.65-23.046,7.091-47.1-9.877-28.617-9.877-28.617" id="路径_390"></path>
    </g>
    <path stroke-width="2" stroke="#52527e" fill="none" transform="translate(2943 -1352)" d="M-2616.7,1527.29s-1.669,104.6,56.752,134.09,169.7-38.391,196.406-96.812" id="路径_394"></path>
    <path stroke-width="2" stroke="#52527e" fill="none" transform="translate(2943 -1352)" d="M-2525.3,1534.3s-1.826,37.5,17.648,49.743,54.8,4.733,68.71-12.515" id="路径_395"></path>
  </g>
</svg>
